<svg id="Group_149" data-name="Group 149" xmlns="http://www.w3.org/2000/svg" xmlns:xlink="http://www.w3.org/1999/xlink" width="67.886" height="76.106" viewBox="0 0 67.886 76.106">
  <defs>
    <clipPath id="clip-path">
      <rect id="Rectangle_252" data-name="Rectangle 252" width="67.886" height="76.106" fill="#083245"/>
    </clipPath>
  </defs>
  <g id="Group_53" data-name="Group 53" transform="translate(0 0)">
    <g id="Group_52" data-name="Group 52" transform="translate(0)" clip-path="url(#clip-path)">
      <path id="Path_29" data-name="Path 29" d="M188.557,285.3a8.8,8.8,0,0,1-15.94-5.141V277h-3.159a8.8,8.8,0,0,1,0-17.6h3.159v-3.159a8.813,8.813,0,0,1,7.3-8.672A19.146,19.146,0,1,0,151.2,268.3c-13.974,4.835-19.889,19.872-22.145,35.119a4.718,4.718,0,0,0,4.69,5.384h55.137a4.727,4.727,0,0,0,4.69-5.384,69.511,69.511,0,0,0-5.012-18.115Zm-33.492-33.266a2.853,2.853,0,0,1-5.706,0,11.976,11.976,0,0,1,11.96-11.959,2.853,2.853,0,0,1,0,5.706,6.259,6.259,0,0,0-6.254,6.253Zm0,0" transform="translate(-129.001 -232.89)" fill="#083245"/>
    </g>
  </g>
  <path id="Path_30" data-name="Path 30" d="M339.868,343.49h-8.477v-8.477a3.49,3.49,0,0,0-6.979,0v8.477h-8.477a3.481,3.481,0,1,0,0,6.962h8.477v8.478a3.49,3.49,0,0,0,6.979,0v-8.478h8.477a3.481,3.481,0,1,0,0-6.962Zm0,0" transform="translate(-275.493 -311.658)" fill="#083245"/>
</svg>
