<svg xmlns="http://www.w3.org/2000/svg" width="80.709" height="80.709" viewBox="0 0 80.709 80.709">
  <g id="Group_150" data-name="Group 150" transform="translate(0.5 0.5)">
    <path id="Path_33" data-name="Path 33" d="M396.027,389.207l-6.814,6.814,13.4,13.4a81.739,81.739,0,0,0,6.814-6.814Z" transform="translate(-329.909 -329.903)" stroke="#083245" stroke-width="1"/>
    <path id="Path_34" data-name="Path 34" d="M379.079,365.424l-5.647-5.647a33.411,33.411,0,0,1-13.617,13.638l5.636,5.636a1.662,1.662,0,0,0,2.344,0l11.283-11.283A1.663,1.663,0,0,0,379.079,365.424Z" transform="translate(-310.256 -310.229)" fill="#131314" stroke="#083245" stroke-width="1"/>
    <path id="Path_35" data-name="Path 35" d="M369.318,396.534l-4.82-4.82a33.118,33.118,0,0,1-4.684,3.051l5.636,5.636a1.662,1.662,0,0,0,2.344,0l3.867-3.867A1.662,1.662,0,0,1,369.318,396.534Z" transform="translate(-310.255 -331.579)" fill="#403c3c" stroke="#083245" stroke-width="1"/>
    <path id="Path_36" data-name="Path 36" d="M268.149,220.227a33.882,33.882,0,1,1-47.916,0A33.882,33.882,0,0,1,268.149,220.227Z" transform="translate(-210.309 -210.304)" stroke="#083245" stroke-width="1"/>
    <path id="Path_37" data-name="Path 37" d="M281.41,281.4a23.756,23.756,0,1,1,0-33.6A23.756,23.756,0,0,1,281.41,281.4Z" transform="translate(-230.729 -230.725)" fill="#fff" stroke="#083245" stroke-width="1"/>
    <path id="Path_38" data-name="Path 38" d="M281.41,290.795a23.914,23.914,0,0,0,2.3-2.67A23.757,23.757,0,0,1,250.483,254.9a23.757,23.757,0,1,0,30.926,35.9Z" transform="translate(-230.729 -240.115)" fill="#f8f8f8" stroke="#083245" stroke-width="1"/>
  </g>
</svg>
