<svg id="_002-twitter" data-name="002-twitter" xmlns="http://www.w3.org/2000/svg" width="37.251" height="37.251" viewBox="0 0 37.251 37.251">
  <circle id="Ellipse_16" data-name="Ellipse 16" cx="18.626" cy="18.626" r="18.626" fill="#f27205"/>
  <g id="Group_39" data-name="Group 39" transform="translate(8.361 11.321)">
    <path id="Path_17" data-name="Path 17" d="M46.753,36.111a8.862,8.862,0,0,1-2.551.7,4.454,4.454,0,0,0,1.953-2.457,8.892,8.892,0,0,1-2.821,1.078,4.445,4.445,0,0,0-7.569,4.052,12.609,12.609,0,0,1-9.155-4.641,4.447,4.447,0,0,0,1.374,5.93,4.41,4.41,0,0,1-2.012-.556c0,.019,0,.038,0,.056a4.444,4.444,0,0,0,3.563,4.355,4.459,4.459,0,0,1-2.006.077,4.446,4.446,0,0,0,4.149,3.085A8.966,8.966,0,0,1,25.1,49.627,12.632,12.632,0,0,0,44.549,38.984c0-.192,0-.384-.013-.574a9.007,9.007,0,0,0,2.217-2.3Z" transform="translate(-25.103 -34.028)" fill="#fff"/>
  </g>
</svg>
