<svg xmlns="http://www.w3.org/2000/svg" width="87.554" height="82.069" viewBox="0 0 87.554 82.069">
  <path id="Path_28" data-name="Path 28" d="M419.286,93.422a1.268,1.268,0,0,0,1.268-1.268V86.659a8.841,8.841,0,0,0-5.232-8.069l-.024-.01-11.211-4.342V71.929a9.259,9.259,0,0,0,3.348-5.75,4.424,4.424,0,0,0,2.355-1.037,4.366,4.366,0,0,0,.532-6.07V55.651A12.133,12.133,0,0,0,390.3,46.425a4.358,4.358,0,0,0-.981-2.638V40.365a12.142,12.142,0,0,0-24.285,0v3.511a4.136,4.136,0,0,0-.98,2.538,12.087,12.087,0,0,0-4.782-2.5,1.268,1.268,0,0,0-.646,2.452,9.61,9.61,0,0,1,7.153,9.289v1.9c-.055-.011-.231-.042-.237-.043a1.46,1.46,0,0,0-.3-.857c-.325-.466-.907-1.047-2.782-3.063a2,2,0,0,0-2.569-.313,18.117,18.117,0,0,1-10.733,2.954,2.026,2.026,0,0,0-2.23,1.3c-.028,0-.342.068-.359.072V55.651a9.668,9.668,0,0,1,6.832-9.2,1.268,1.268,0,1,0-.731-2.428,12.239,12.239,0,0,0-6.191,4.319,12.033,12.033,0,0,0-2.445,7.307v3.511a4.131,4.131,0,0,0-.984,2.673,4.378,4.378,0,0,0,3.878,4.346,9.365,9.365,0,0,0,3.533,5.9v2.16l-11.2,4.342-.024.009A8.84,8.84,0,0,0,334,86.659v19.884a2.752,2.752,0,0,0,2.75,2.749H375.8a2.73,2.73,0,0,1,2.963,0H417.8a2.752,2.752,0,0,0,2.749-2.749V98.071a1.268,1.268,0,0,0-2.536,0v8.472a.214.214,0,0,1-.214.214h-4.817V88.232a1.268,1.268,0,0,0-2.536,0v18.524h-9.309l2.52-2.772a2.027,2.027,0,0,0,.491-1.627c0-.013,0-.025-.006-.038l-2.832-16.735.521-.785.136.1a1.985,1.985,0,0,0,2.925-.732h0l2.882-5.777,6.584,2.55a6.31,6.31,0,0,1,3.656,5.722v5.495A1.268,1.268,0,0,0,419.286,93.422ZM393.642,82.456l-2.489-4.988,2.176-.843,3.113,3.842Zm-30.248-4.988-2.489,4.988-.675-.479,0,0-2.126-1.51,3.112-3.841Zm-11.761,4.988-2.489-4.988,2.176-.843,3.113,3.842-2.122,1.507,0,0Zm15.12-20.732a1.823,1.823,0,0,1-1.21,1.835V60.111A1.81,1.81,0,0,1,366.753,61.724ZM381.9,40.348c1.143,1.226,1.824,1.938,2.11,2.269V49.43a6.838,6.838,0,0,1-13.673,0V43.491A20.761,20.761,0,0,0,381.9,40.348Zm5.864,6.2a1.824,1.824,0,0,1-.634,1.385,1.876,1.876,0,0,1-.584.341V44.826A1.828,1.828,0,0,1,387.766,46.548Zm4.7,25.53v2.16l-10.779,4.179L380.31,70.3l.521-.785.136.1a1.985,1.985,0,0,0,2.925-.732h0l2.14-4.289a4.45,4.45,0,0,0,2.894,1.594A9.217,9.217,0,0,0,392.463,72.079Zm-15.187,9.973a9.033,9.033,0,0,0-2.067-2.3l1.434-8.471H377.9l1.434,8.475A9.044,9.044,0,0,0,377.277,82.052Zm-15.2-10.121a9.27,9.27,0,0,0,3.347-5.747,4.446,4.446,0,0,0,3.013-1.749l2.218,4.444h0a1.985,1.985,0,0,0,2.925.732l.136-.1.521.785-1.374,8.117-10.786-4.177V71.93ZM377.29,58.687h0a9.373,9.373,0,0,0,3.256-.591v1.277l-3.273,4.04-3.279-4.048V58.148A10.225,10.225,0,0,0,377.29,58.687Zm11.517,4.872a1.827,1.827,0,0,1-1.218-1.725,1.872,1.872,0,0,1,1.218-1.65Zm-6.9,3.611-.675-.479,0,0-2.126-1.51,1.085-1.34,2.026-2.5,2.181.844ZM378.3,68.747h-2.044l-.466-.7,1.488-1.057,1.489,1.057Zm-5.658-1.577-2.489-4.988,2.176-.843,3.113,3.842-2.123,1.508,0,0Zm13.4-11.519v3.51a4.338,4.338,0,0,0-.5.741l-2.452-.95V56.644a9.259,9.259,0,0,0,3.348-5.75,4.561,4.561,0,0,0,.633-.122A12.069,12.069,0,0,0,386.037,55.651ZM367.8,44.9v3.376a1.83,1.83,0,0,1-1.218-1.726A1.873,1.873,0,0,1,367.8,44.9Zm.124,6a9.365,9.365,0,0,0,3.533,5.9v2.161l-2.587,1a4.347,4.347,0,0,0-.56-.884V55.651a12.113,12.113,0,0,0-1.023-4.878A4.533,4.533,0,0,0,367.926,50.894ZM355.639,86.569H356.9l2.693,15.911-3.323,3.656-3.323-3.656Zm1.652-2.536h-2.044l-.467-.7,1.488-1.057,1.488,1.057Zm44.26-10.651v1.277l-3.273,4.04L395,74.651V73.434a10.225,10.225,0,0,0,3.295.539h0A9.374,9.374,0,0,0,401.551,73.381Zm-3.256-1.945a6.769,6.769,0,0,1-6.952-6.721V58.777a20.773,20.773,0,0,0,11.563-3.143c1.143,1.226,1.823,1.938,2.11,2.269v6.813A6.735,6.735,0,0,1,398.295,71.437Zm9.257-7.876V60.111a1.83,1.83,0,0,1,0,3.449Zm-9.373-17.516a9.617,9.617,0,0,1,9.606,9.607v1.9c-.058-.012-.216-.039-.237-.043a1.461,1.461,0,0,0-.3-.857c-.333-.479-.91-1.05-2.782-3.063a2.006,2.006,0,0,0-2.569-.313,18.152,18.152,0,0,1-10.827,2.95,1.994,1.994,0,0,0-2.135,1.3c-.028,0-.341.068-.359.072V55.651A9.618,9.618,0,0,1,398.179,46.045Zm-30.611-5.679a9.607,9.607,0,0,1,19.213,0v1.9c-.057-.012-.216-.039-.237-.043a1.536,1.536,0,0,0-.359-.936c-.339-.46-.965-1.091-2.726-2.984a2,2,0,0,0-2.569-.313,18.111,18.111,0,0,1-10.929,2.945,2.015,2.015,0,0,0-2.033,1.308c-.028,0-.341.068-.359.072V40.365ZM345.579,61.834a1.873,1.873,0,0,1,1.218-1.65v3.376A1.83,1.83,0,0,1,345.579,61.834Zm3.754,2.882V58.777A20.782,20.782,0,0,0,360.9,55.634c1.132,1.214,1.823,1.938,2.11,2.269v6.813a6.838,6.838,0,0,1-13.673,0Zm6.952,9.257h0a9.369,9.369,0,0,0,3.256-.591v1.277l-3.273,4.04-3.279-4.048V73.434A10.221,10.221,0,0,0,356.285,73.973Zm-19.749,32.57V86.659a6.311,6.311,0,0,1,3.653-5.721l6.58-2.551,2.883,5.777h0a1.985,1.985,0,0,0,2.925.732l.136-.1.521.785L350.4,102.32c0,.013,0,.025-.006.038a2.029,2.029,0,0,0,.491,1.627l2.519,2.772h-9.3V88.232a1.268,1.268,0,0,0-2.536,0v18.524H336.75A.214.214,0,0,1,336.536,106.543Zm39.26.214h-4.817V88.232a1.268,1.268,0,0,0-2.536,0v18.524h-9.309l2.52-2.772a2.027,2.027,0,0,0,.491-1.627c0-.013,0-.025-.006-.038l-2.832-16.735.521-.785.136.1a1.985,1.985,0,0,0,2.925-.732h0l2.882-5.776,6.584,2.55a6.3,6.3,0,0,1,3.656,5.721v19.884A.214.214,0,0,1,375.8,106.756Zm10.317,0V88.232a1.268,1.268,0,0,0-2.536,0v18.524h-4.817a.214.214,0,0,1-.214-.214V86.659a6.061,6.061,0,0,1,1.48-4.062,6.821,6.821,0,0,1,2.174-1.659h0l6.58-2.551,2.882,5.777h0a1.985,1.985,0,0,0,2.925.732l.136-.1.521.785L392.41,102.32c0,.013,0,.025-.006.038a2.029,2.029,0,0,0,.491,1.627l2.519,2.772h-9.3Zm12.166-.62-3.323-3.656,2.693-15.911h1.261L401.6,102.48Zm1.022-22.1h-2.044l-.467-.7,1.488-1.057,1.488,1.057Zm3.615-1.577-2.8-1.991,3.112-3.841,2.181.845Z" transform="translate(-333.5 -27.723)" stroke="#083245" stroke-width="1"/>
</svg>
