<svg xmlns="http://www.w3.org/2000/svg" width="289.155" height="247.697" viewBox="0 0 289.155 247.697">
  <g id="Group_166" data-name="Group 166" transform="translate(-545.493 -52.92)">
    <path id="Path_6420" data-name="Path 6420" d="M570.973,257.3c-17.674-17.076-26.664-42.447-24.7-66.944s14.548-47.77,33.32-63.63c8.855-7.482,19.084-13.475,26.611-22.29,7.349-8.6,11.736-19.468,19.382-27.809,12.185-13.293,30.843-18.358,48.672-21.053,14.426-2.18,29.188-3.213,43.581-.818C730.721,56.9,743.02,61.74,754.745,67.5c19.185,9.427,37.316,21.573,51.359,37.689,21.9,25.13,32.7,60.277,26.06,92.942s-31.547,61.6-63.638,70.614c-16.136,4.531-33.175,4.153-49.935,4.337-27.755.3-55.26,3.263-82.893,4.99C611.487,279.585,589.024,274.737,570.973,257.3Z" transform="translate(0 0)" fill="#f5b80d" stroke="rgba(0,0,0,0)" stroke-width="1" style="mix-blend-mode: color-burn;isolation: isolate"/>
    <g id="Group_165" data-name="Group 165" transform="translate(557.559 68.823)">
      <g id="Group_162" data-name="Group 162" transform="translate(0.403 11.932)">
        <path id="Path_6421" data-name="Path 6421" d="M583.926,165.094a34.432,34.432,0,0,0-5.71-4.121c-1.739-1-3.822-1.868-5.7-1.166-.695.259-1.3.718-2,.967a9.669,9.669,0,0,1-3.012.3,12.75,12.75,0,0,0-8.282,3.208,10.016,10.016,0,0,0-3.26,8.129,8.272,8.272,0,0,0,5.141,6.9,14.171,14.171,0,0,0,4.165.661,148.152,148.152,0,0,0,17.486-.113" transform="translate(-555.92 -58.891)" fill="#ce9e7c" stroke="rgba(0,0,0,0)" stroke-width="1"/>
        <path id="Path_6422" data-name="Path 6422" d="M676.545,270.2c-15.074,6.824-32.174,8.279-48.619,6.452-6.3-.7-12.98-2.084-17.428-6.6a5.1,5.1,0,0,1-1.38-2.085,6.065,6.065,0,0,1-.028-2.409c.9-7.258,1.85-14.622.761-21.854a55.4,55.4,0,0,1-1.13-8.356c.01-3.272,1.006-6.449,1.926-9.588,2.175-7.43,4.458-15.179,4.042-22.908-2.7,3.615-7.6,5.073-12.093,4.631s-8.656-2.51-12.53-4.826a87.289,87.289,0,0,1-7.7-5.169c-2.447-1.843-4.875-3.931-6.073-6.751-2.754-6.484,2.548-14.142.759-20.955a52.37,52.37,0,0,1,7.034,2.737c4.783,2.131,9.663,3.967,14.446,6.1.541-4.806,1.113-9.721,3.238-14.067,1.9-3.883,5.008-7.254,5.893-11.485.437-2.086.3-4.25.586-6.361.547-3.98,2.588-7.574,4.589-11.057,2.655-4.622,5.7-9.586,10.719-11.391,2.7-.973,5.654-.89,8.523-.756,6.253.291,11.994-1.193,18.158-2.276s12.9-1.323,18.276,1.879c3.907,2.326,6.659,6.255,8.373,10.467a60.738,60.738,0,0,1,3.221,13.227c2.06,12.62,3.885,25.334,3.87,38.122-.022,18.353-3.834,36.781-1.255,54.951a58.376,58.376,0,0,1-2.531,25.457,6.542,6.542,0,0,1-.965,2.039c-1.02,1.3-3.03,2.116-2.967,3.766" transform="translate(-551.891 -66.933)" fill="#959ac4" stroke="rgba(0,0,0,0)" stroke-width="1"/>
        <path id="Path_6423" data-name="Path 6423" d="M615.421,98.325c-4.867,8.429-4.164,19.326.216,28.018,2.9,5.757,7.723,10.993,14.016,12.388,5.992,1.328,12.486-1.19,16.618-5.729s6.03-10.839,5.916-16.976a39.91,39.91,0,0,0-4.948-17.564c-3.677-7.034-6.78-11.97-15.353-10.99A22.4,22.4,0,0,0,615.421,98.325Z" transform="translate(-544.361 -73.759)" fill="#ce9e7c" stroke="rgba(0,0,0,0)" stroke-width="1"/>
        <path id="Path_6424" data-name="Path 6424" d="M627.805,112.552c-1.489,1.605-4.027,1.767-6.127,1.15a4.572,4.572,0,0,0,3.247.983A2.951,2.951,0,0,0,627.805,112.552Z" transform="translate(-542.379 -68.569)" fill="#24273a" stroke="rgba(0,0,0,0)" stroke-width="1"/>
        <path id="Path_6425" data-name="Path 6425" d="M613.519,114.816a3.147,3.147,0,0,0,4.018-.472,1.167,1.167,0,0,1-.26.907,2.576,2.576,0,0,1-2.092.822A1.972,1.972,0,0,1,613.519,114.816Z" transform="translate(-544.059 -68.2)" fill="#24273a" stroke="rgba(0,0,0,0)" stroke-width="1"/>
        <path id="Path_6426" data-name="Path 6426" d="M614.3,121.595a.565.565,0,0,1,.431-.678c1.173-.265,3.078-.755,3.444-.854,3.516-.953,4.335-1.106,7.8-2.229,3.846-1.247,7.707-2.608,11.736-2.938a5.217,5.217,0,0,1,1.946,2.048,20.737,20.737,0,0,1,1.665,3.244,8.863,8.863,0,0,1,.837,5.15,6.254,6.254,0,0,1-2.319,3.416,14.556,14.556,0,0,1-3.7,1.974,25.4,25.4,0,0,1-7.789,1.915,13.751,13.751,0,0,1-7.76-1.677C617.264,129.014,615.193,125.367,614.3,121.595Z" transform="translate(-543.902 -68.086)" fill="#fff" stroke="rgba(0,0,0,0)" stroke-width="1"/>
        <path id="Path_6427" data-name="Path 6427" d="M631.719,118.726c2.422-3.974,4.884-8,8.269-11.193a5.556,5.556,0,0,1,3.866-1.91,4,4,0,0,1,3.366,3.041,8.586,8.586,0,0,1-.332,4.767,21.376,21.376,0,0,1-10.608,12.637" transform="translate(-540.311 -69.997)" fill="rgba(0,0,0,0)" stroke="#fff" stroke-width="0.807"/>
        <path id="Path_6428" data-name="Path 6428" d="M629.347,111.41a1.75,1.75,0,0,1,.7.189,1.588,1.588,0,0,1,.505.538,5.167,5.167,0,0,1-.961,6.519,5.829,5.829,0,0,1-1.887,1.049,6.528,6.528,0,0,1-5.018-.291,5.9,5.9,0,0,1-2.671-2.827c-.66-1.422-.182-2.009,1.025-2.911A11.772,11.772,0,0,1,629.347,111.41Z" transform="translate(-542.784 -68.82)" fill="rgba(0,0,0,0)" stroke="#3f3f3f" stroke-width="0.807"/>
        <path id="Path_6429" data-name="Path 6429" d="M619.983,114.651a3.318,3.318,0,0,0-2.077.353" transform="translate(-543.156 -68.145)" fill="rgba(0,0,0,0)" stroke="#3f3f3f" stroke-width="0.807"/>
        <path id="Path_6430" data-name="Path 6430" d="M612.3,113.235a2.632,2.632,0,0,0-1.6.291,2.268,2.268,0,0,0-.714,2.13,6.482,6.482,0,0,0,4.99,5.591,4.037,4.037,0,0,0,3.135-.485,3.917,3.917,0,0,0,1.48-3.035c.062-1.265-.007-3.281-1.271-3.8C616.612,113.235,614.115,113.305,612.3,113.235Z" transform="translate(-544.791 -68.43)" fill="rgba(0,0,0,0)" stroke="#3f3f3f" stroke-width="0.807"/>
        <path id="Path_6431" data-name="Path 6431" d="M610.311,114.192a16.033,16.033,0,0,1,2.1-2.754" transform="translate(-544.72 -68.799)" fill="rgba(0,0,0,0)" stroke="#3f3f3f" stroke-width="0.807"/>
        <path id="Path_6432" data-name="Path 6432" d="M629.119,112.79l4.261-3.747" transform="translate(-540.847 -69.292)" fill="rgba(0,0,0,0)" stroke="#3f3f3f" stroke-width="0.807"/>
        <path id="Path_6433" data-name="Path 6433" d="M655.647,121.583a16.334,16.334,0,0,0,5.112-15.06c-.556-2.851-2.157-5.772-4.906-6.711a19.473,19.473,0,0,0-4.585-15.41c-3.651-4.153-8.615-6.063-14.007-7.292a29.343,29.343,0,0,0-7.236-1.025,9.882,9.882,0,0,0-6.7,2.516,14.368,14.368,0,0,1-1.788,1.755,10.015,10.015,0,0,1-3.553,1.117c-6.285,1.445-10.76,7.295-12.628,13.468-.867,2.868-1.222,6.2.478,8.668a5.4,5.4,0,0,0-2.1,5.475c.459,2.021,2.37,3.084,4.288,3.867a24.318,24.318,0,0,0,12.438,1.771,17.776,17.776,0,0,0,11.015-5.77c1.283,2.92,3.321,5.905,6.188,7.3a13.722,13.722,0,0,0,9.322.944,2.192,2.192,0,0,1,1.13-.1,2.146,2.146,0,0,1,.886.654,19.844,19.844,0,0,0,4.616,3.537c.59.328,1.636.39,1.644-.287" transform="translate(-546.099 -76.08)" fill="#e8e6dd" stroke="rgba(0,0,0,0)" stroke-width="1"/>
        <path id="Path_6434" data-name="Path 6434" d="M608.927,198.244a250.23,250.23,0,0,0,13.655-48.94c-2.747,11.628-5.5,23.277-9.342,34.589-1.915,5.642-4.168,11.312-8.029,15.851C606.543,199.651,608.438,199.487,608.927,198.244Z" transform="translate(-545.77 -61.001)" fill="#24273a" stroke="rgba(0,0,0,0)" stroke-width="1"/>
        <path id="Path_6435" data-name="Path 6435" d="M594.46,168.854a16.729,16.729,0,0,1,6.179,7.475c-.766-1.392-1.312-2.9-2.084-4.283a14.918,14.918,0,0,0-3.749-4.412A10.229,10.229,0,0,1,594.46,168.854Z" transform="translate(-547.984 -57.227)" fill="#24273a" stroke="rgba(0,0,0,0)" stroke-width="1"/>
        <path id="Path_6436" data-name="Path 6436" d="M621.072,113.2a1.646,1.646,0,0,0,1.165-.232,23.749,23.749,0,0,1,5.374-1.487,1.8,1.8,0,0,0,1.387-.759,1.213,1.213,0,0,0-.685-1.5,3.38,3.38,0,0,0-1.8-.157,17.822,17.822,0,0,0-5.5,1.267c-.625.28-1.311.7-1.158,1.442A3.035,3.035,0,0,0,621.072,113.2Z" transform="translate(-542.76 -69.296)" fill="#e8e6dd" stroke="rgba(0,0,0,0)" stroke-width="1"/>
        <path id="Path_6437" data-name="Path 6437" d="M616.849,111.251a3.682,3.682,0,0,1,1.271.336,1.547,1.547,0,0,1,.825.98.994.994,0,0,1-.5,1.114,1.637,1.637,0,0,1-.824.063l-2.109-.2a11.786,11.786,0,0,1-2.59-.443c-1.1-.364-1.266-1.3-.2-1.69A9.727,9.727,0,0,1,616.849,111.251Z" transform="translate(-544.371 -68.866)" fill="#e8e6dd" stroke="rgba(0,0,0,0)" stroke-width="1"/>
      </g>
      <g id="Group_164" data-name="Group 164">
        <path id="Path_6438" data-name="Path 6438" d="M747.045,220.634a68.606,68.606,0,0,0,20.3-20.827c.844-1.351,1.67-2.915,1.288-4.46s-2.661-2.519-3.608-1.24c2.845-6.552,5.217-13.785,3.6-20.742a4.86,4.86,0,0,0-1.863-3.209c-1.487-.9-3.418-.222-4.915.66a20.951,20.951,0,0,0-9,10.855,2.688,2.688,0,0,0-3.129-.967,6.8,6.8,0,0,0-2.806,2.095,33.1,33.1,0,0,0-8.484,22.218,8.176,8.176,0,1,0,4.662,15.376" transform="translate(-519.426 -44.863)" fill="#59663a" stroke="rgba(0,0,0,0)" stroke-width="1"/>
        <path id="Path_6439" data-name="Path 6439" d="M591.243,210.131c-2.9-1.138-5.16-3.457-7.255-5.767q-4.748-5.237-9.037-10.868c-.792-1.042-1.568-2.56-.7-3.536a2.494,2.494,0,0,1,1.289-.661c2.689-.687,5.524-.131,8.222.519a121.916,121.916,0,0,1,17.834,5.773c3.115,1.281,6.3,2.782,8.4,5.417a5.982,5.982,0,0,1,1.4,3.075c.386,4.029-3.6,6.481-6.946,6.546C600.088,210.715,595.448,211.781,591.243,210.131Z" transform="translate(-551.821 -40.898)" fill="#b28766" stroke="rgba(0,0,0,0)" stroke-width="1"/>
        <path id="Path_6440" data-name="Path 6440" d="M658.439,218.523c-1.011,6.079.766,12.3.329,18.445-.225,3.175-1.037,6.278-1.439,9.435a36.8,36.8,0,0,0,.122,10.132c17.906,1.368,35.817,2.5,53.75,1.557-.866-11.394,2.365-23.025-.113-34.178a3.618,3.618,0,0,0-.679-1.633,3.814,3.814,0,0,0-2.621-.935q-20.985-1.881-42.075-2.161C663.016,219.15,661.131,218.735,658.439,218.523Z" transform="translate(-534.695 -34.816)" fill="#5b647a" stroke="rgba(0,0,0,0)" stroke-width="1"/>
        <g id="Group_163" data-name="Group 163" transform="translate(55.969 59.109)">
          <path id="Path_6441" data-name="Path 6441" d="M764.923,175.2c-6.423-11.574-13.1-23.061-18.117-35.311-3.047-7.445-5.823-15.628-12.349-20.331-6.028-4.346-14.019-4.747-21.424-4.127-1.182.1-2.77.79-2.4,1.915a95.344,95.344,0,0,1-34.563,9.915c-2,3.238-6.5,3.86-9.246,6.5-2.865,2.752-3.3,7.1-3.624,11.063a396.047,396.047,0,0,1-8.522,55.556c-.44,1.937-.66,4.355-2.289,5.492a14.4,14.4,0,0,1-5.588,1.938c-14.069,2.751-28.327,4.9-42.663,4.844a26.142,26.142,0,0,0-.87,18.434c21.675,3.6,43.674,2.327,64.245-5.389a95.465,95.465,0,0,1-1.488,16c12.134,2.417,23.84,5.128,36.208,5.436s25.029-1.6,35.947-7.422a57.409,57.409,0,0,0,.269-25.1c6.47-1.972,12.262-3.636,18.193-6.888,5.755-3.155,11.617-7.468,13.166-13.846C771.369,187.465,768.123,180.966,764.923,175.2Zm-18.584,13.335a2.6,2.6,0,0,1-1.23.721,50.478,50.478,0,0,1-11.226,2.547c.914-6.721,1.617-14.352,2.028-21.122a12.87,12.87,0,0,1,4.123,4.634c.985,1.882,1.5,4,2.606,5.808,1.068,1.745,2.655,3.146,3.593,4.966A2.325,2.325,0,0,1,746.338,188.534Z" transform="translate(-601.997 -115.201)" fill="#db8358" stroke="rgba(0,0,0,0)" stroke-width="1"/>
        </g>
        <path id="Path_6442" data-name="Path 6442" d="M636.1,85.208a26.337,26.337,0,0,0,2.9,25.6c1.958,2.657,4.445,4.968,5.857,7.952,3.16,6.668.172,14.417-1.314,21.643a7.914,7.914,0,0,0-.186,3.12,6.535,6.535,0,0,0,1.741,3.047,16.493,16.493,0,0,0,12.316,4.925,26.051,26.051,0,0,0,12.888-4.03,11.565,11.565,0,0,0,3.752-3.2,12.205,12.205,0,0,0,1.65-6.325,37.419,37.419,0,0,0-3.257-18.349c-2.583-5.3-6.713-9.65-10.78-13.914-6.7-7.024-13.473-14.113-21.574-19.46-.877-.579-1.768-1.136-2.659-1.693" transform="translate(-539.432 -62.411)" fill="#332819" stroke="rgba(0,0,0,0)" stroke-width="1"/>
        <path id="Path_6443" data-name="Path 6443" d="M679.545,157.68A11.732,11.732,0,0,1,666.793,156a6.868,6.868,0,0,1-1.445-2.247,41.293,41.293,0,0,0,1.583-22.462,7.587,7.587,0,0,0-1.387-3.4,3.579,3.579,0,0,0-3.372-.83c-5.858.865-12.578.188-16.481-4.265a20.808,20.808,0,0,1-2.649-4.16,66.421,66.421,0,0,1-6.733-17.719,32.8,32.8,0,0,1,1.357-18.7c2.408-5.866,7.216-10.886,13.274-12.757a18.923,18.923,0,0,1,11.181-.082,36.287,36.287,0,0,1,10.264,5.4,28.312,28.312,0,0,1,5.406,4.624c2.754,3.225,4.162,7.379,5.131,11.507a70.144,70.144,0,0,1,1.452,8.482,29.82,29.82,0,0,1-.529,11.315c-.456,1.612-1.125,3.162-1.518,4.791-.856,3.554-.352,7.284.322,10.876q.6,3.2,1.38,6.367c.991,4.039,3.445,7.782,4.128,11.884a8.477,8.477,0,0,1,.1,2.968c-.344,1.8-1.669,3.223-2.939,4.544l-5.425,5.64c-.117.122-.264.254-.431.224S679.376,157.682,679.545,157.68Z" transform="translate(-539.117 -65.694)" fill="#b28766" stroke="rgba(0,0,0,0)" stroke-width="1"/>
        <path id="Path_6444" data-name="Path 6444" d="M707.687,120.515c1.908,1.45,1.968,4.428.863,6.554s-3.064,3.648-4.838,5.258-3.495,3.535-3.832,5.907c-.333,2.331.732,4.622.912,6.97a14.254,14.254,0,0,1-1.128,6.1c-1.677,4.388-4.567,8.5-8.749,10.641a11.377,11.377,0,0,1-12.938-1.734,8.614,8.614,0,0,1-10.652.2c-3.068-2.331-4.966-6.57-3.708-10.211,1.734-5.025,6.19-8.572,8.95-13.114a21.509,21.509,0,0,0,2.841-7.695,12.36,12.36,0,0,0-.613-7c-1.09-2.446-3.241-4.238-4.738-6.458a13.822,13.822,0,0,1-2.378-8.388,4.524,4.524,0,0,0-2.964-8.4c-1.317.213-2.515,1-3.849,1.046-3.161.1-4.943-3.753-7.893-4.894a11.552,11.552,0,0,0-3.365-.526,36.5,36.5,0,0,1-11.582-2.788c-2.46-1.042-4.935-2.483-6.184-4.845,2.986-5.805,7.766-10.355,12.873-14.42a31.736,31.736,0,0,1,8.671-5.223c8.495-3.111,18.4-.039,25.1,6.042S689.066,88.241,691.337,97c1.019,3.93,1.833,8.11,4.436,11.227,2.681,3.214,6.812,4.76,10.242,7.158a6.3,6.3,0,0,1,2.028,2.024,2.6,2.6,0,0,1-.031,2.736C707.837,120.377,707.449,120.688,707.687,120.515Z" transform="translate(-539.883 -66.17)" fill="#332819" stroke="rgba(0,0,0,0)" stroke-width="1"/>
        <path id="Path_6445" data-name="Path 6445" d="M637.834,107.739a14.354,14.354,0,0,1,4.64-2.57,119.532,119.532,0,0,1,17.433-5.343,40.913,40.913,0,0,1,3.149,12.261c.182,2.134.149,4.434-1.04,6.218-1.482,2.223-4.323,3.037-6.946,3.543-2.262.437-4.677.755-6.813-.107a10.551,10.551,0,0,1-3.374-2.418A26.61,26.61,0,0,1,637.834,107.739Z" transform="translate(-538.649 -59.258)" fill="#fff" stroke="rgba(0,0,0,0)" stroke-width="1"/>
        <path id="Path_6446" data-name="Path 6446" d="M654.363,103.312q1.2-3.56,2.717-7a9.53,9.53,0,0,1,1.635-2.754,3.5,3.5,0,0,1,2.86-1.2,3.69,3.69,0,0,1,1.507.588,7.622,7.622,0,0,1,3.251,6.765,11.879,11.879,0,0,1-3.094,7.072,27.847,27.847,0,0,1-6.08,4.945" transform="translate(-535.246 -60.801)" fill="rgba(0,0,0,0)" stroke="#fff" stroke-width="0.807"/>
        <path id="Path_6447" data-name="Path 6447" d="M642.7,99.7c.421,1.049.257,2.1-.369,2.355s-1.474-.394-1.9-1.443-.257-2.1.368-2.355S642.275,98.656,642.7,99.7Z" transform="translate(-538.162 -59.592)" fill="#24273a" stroke="rgba(0,0,0,0)" stroke-width="1"/>
        <path id="Path_6448" data-name="Path 6448" d="M640.9,94.593a4.108,4.108,0,0,1,2.368-.27,1.821,1.821,0,0,1,1.444,1.7,15.28,15.28,0,0,1-4.683,2.067,2.293,2.293,0,0,1-1.705.078C635.655,96.8,639.784,94.995,640.9,94.593Z" transform="translate(-538.73 -60.408)" fill="#332819" stroke="rgba(0,0,0,0)" stroke-width="1"/>
        <path id="Path_6449" data-name="Path 6449" d="M661.043,118.679a23.082,23.082,0,0,0,4.737-5.975,6.786,6.786,0,0,1-2.447,2.289,27.2,27.2,0,0,1-4.44,2.481c-.046.021-1.743.617-1.784.587a18.192,18.192,0,0,1,1.852-.093A2.959,2.959,0,0,1,661.043,118.679Z" transform="translate(-534.68 -56.606)" fill="#24273a" stroke="rgba(0,0,0,0)" stroke-width="1"/>
        <path id="Path_6450" data-name="Path 6450" d="M653.329,216.91s6.6-41.975,7.237-52.811l-3.619,51.527Z" transform="translate(-535.459 -46.023)" fill="#24273a" stroke="rgba(0,0,0,0)" stroke-width="1"/>
        <path id="Path_6451" data-name="Path 6451" d="M716.465,192.7l-16.251,1.312a65.873,65.873,0,0,0-10.522,1.424c-2.927.722-5.766,1.851-8.758,2.221a17.982,17.982,0,0,1-16.364-7.058c-1.922-2.619-3.1-6.138-1.837-9.132,1.7.664,3.625.446,5.32,1.111a1.187,1.187,0,0,1-1.21-1.984,2.429,2.429,0,0,1,2.3-.16,28.606,28.606,0,0,0,8.865,1.48,43.074,43.074,0,0,1,5.5-.4c3.767.3,6.67,2.841,10.44,3.106q8.545-.787,16.987-2.4c2.794,1.624,3.731,5.184,4.778,8.242C715.95,191.152,716.227,192,716.465,192.7Z" transform="translate(-533.63 -42.702)" fill="#b28766" stroke="rgba(0,0,0,0)" stroke-width="1"/>
        <path id="Path_6452" data-name="Path 6452" d="M717.651,200.945q-5.235.834-10.481,1.6a11.21,11.21,0,0,1-3.908.075,20.715,20.715,0,0,1-.517-11.545,21.331,21.331,0,0,0,1.55,9.214,11.233,11.233,0,0,0,4.9.181q3.638-.431,7.239-1.111C717.143,199.226,717.2,200.376,717.651,200.945Z" transform="translate(-525.4 -40.468)" fill="#24273a" stroke="rgba(0,0,0,0)" stroke-width="1"/>
        <path id="Path_6453" data-name="Path 6453" d="M709.212,199.854a29.991,29.991,0,0,0-2.176-11.609c-1.563-3.642-3.875-7-7.327-8.947a16.971,16.971,0,0,1,8.189,8.648,25.916,25.916,0,0,1,1.922,11.908c-.1-.09-.352-.178-.449-.088l.364-.006" transform="translate(-525.908 -42.893)" fill="#24273a" stroke="rgba(0,0,0,0)" stroke-width="1"/>
        <path id="Path_6454" data-name="Path 6454" d="M714.051,171.357c-3.433-10.651-6.885-21.376-8.289-32.478a139.711,139.711,0,0,0,8.95,27.3C715.444,167.82,714.624,169.658,714.051,171.357Z" transform="translate(-524.661 -51.216)" fill="#24273a" stroke="rgba(0,0,0,0)" stroke-width="1"/>
        <path id="Path_6455" data-name="Path 6455" d="M678.242,255.194c-.265-3.538-.552-7.164-2.044-10.384a29.617,29.617,0,0,0-2.354-3.952l-3.157-4.726a8.552,8.552,0,0,1-1.467-2.971,25.932,25.932,0,0,0,2.777,7.28c.476.75,1.03,1.449,1.481,2.215a16.508,16.508,0,0,1,1.721,4.824,50.643,50.643,0,0,1,1.112,7.538Z" transform="translate(-532.186 -31.801)" fill="#24273a" stroke="rgba(0,0,0,0)" stroke-width="1"/>
        <path id="Path_6456" data-name="Path 6456" d="M615.566,196.935a27.782,27.782,0,0,1-4.022,14.925c-.116.194-.233.39-.35.584-1.159,1.86-2.736,3.573-4.859,3.972a5.113,5.113,0,0,1-4.059-1.392c-4.274-.127-8.129-2.688-11.079-5.784s-5.229-6.757-8.033-9.979c-6.912-7.954-16.619-12.831-26.062-17.514a19.471,19.471,0,0,1,4.08-9.746,27.875,27.875,0,0,1,7.545-6.736c2.092-1.3,4.721-2.385,6.951-1.324,1.334.632,2.22,1.908,3.241,2.969,2.512,2.619,5.978,4.04,9.22,5.646A70.39,70.39,0,0,1,615.566,196.935Z" transform="translate(-555.274 -46.143)" fill="#f2c88b" stroke="rgba(0,0,0,0)" stroke-width="1"/>
        <path id="Path_6457" data-name="Path 6457" d="M646.11,69.574c6.391-2.26,13.168-3.97,19.9-3.2s13.452,4.414,16.4,10.518c4.1,8.491.709,20.431,7.86,26.576,3.718,3.2,9.26,3.629,12.882,6.933a10.681,10.681,0,0,1,2.419,12.052c-2.894,6.23-10.973,8.152-15.262,13.518" transform="translate(-536.945 -66.185)" fill="rgba(0,0,0,0)" stroke="#332819" stroke-width="0.807"/>
        <path id="Path_6458" data-name="Path 6458" d="M687.792,125.882a31.174,31.174,0,0,1,5.552,7.638c1.3,2.88,1.662,6.362.174,9.151a13.133,13.133,0,0,1-9.928,6.167,6,6,0,0,1-5.719-3.766" transform="translate(-530.405 -53.892)" fill="rgba(0,0,0,0)" stroke="#332819" stroke-width="0.807"/>
        <path id="Path_6459" data-name="Path 6459" d="M735.357,199.975a15.357,15.357,0,0,1,7.293-8.4,11.879,11.879,0,0,1,9.666-.841c2.723,1.067,4.8,3.322,6.51,5.7a15.811,15.811,0,0,1,2.719,5.387,11.237,11.237,0,0,1-3.659,10.781,14.259,14.259,0,0,1-11.173,3.146c-3.3-.434-7.822-2.183-10.271-4.486C733.713,208.7,734.169,203.327,735.357,199.975Z" transform="translate(-518.76 -40.676)" fill="#c13a3a" stroke="rgba(0,0,0,0)" stroke-width="1"/>
        <path id="Path_6460" data-name="Path 6460" d="M714.36,207.1a15.359,15.359,0,0,1,7.293-8.4,11.876,11.876,0,0,1,9.664-.84c2.724,1.068,4.806,3.322,6.511,5.7a15.8,15.8,0,0,1,2.719,5.387,11.237,11.237,0,0,1-3.659,10.78,14.259,14.259,0,0,1-11.173,3.146c-3.3-.434-7.822-2.183-10.271-4.485C712.715,215.823,713.172,210.451,714.36,207.1Z" transform="translate(-523.084 -39.209)" fill="#c13a3a" stroke="rgba(0,0,0,0)" stroke-width="1"/>
        <path id="Path_6461" data-name="Path 6461" d="M792.281,234.412c-1.523-8.292-3.046-16.6-5.207-24.75-.84-3.172-.935-6.5-4.6-6.85-3.406-.322-7.971,1.607-11.366,2.2-.806.14-1.615.256-2.423.387-1.015-5.554-2.086-11.144-4.3-16.335-2.3-5.392-5.956-10.4-11.092-13.216-6-3.3-13.253-3.266-20.057-2.494-4.545.515-9.551,1.624-12.145,5.392a4.33,4.33,0,0,0,3.3-.819c7.088-6.757,20.261-2.957,27.787,3.309,7.14,5.945,9.221,15.827,10.73,25.042-13.986,1.966-28.1,2.95-42.122,4.632q-3.669.44-7.331.955a16.747,16.747,0,0,1-1.018-6.124c-1.059,0-2.1.4-3.163.4a35.847,35.847,0,0,0,.326,6.3c-5.639.878-11.248,1.94-16.79,3.3q-.517,19.742.621,39.482a15.857,15.857,0,0,0,1.135,5.952c1.446,3.038,4.6,4.843,7.661,6.242a86.789,86.789,0,0,0,14.522,5.05c20.156,5.179,42.509,4.087,60.564-6.262,7.454-4.273,14.466-10.757,15.824-19.24C793.8,242.8,793.042,238.558,792.281,234.412Z" transform="translate(-527.361 -44.206)" fill="#d9b47a" stroke="rgba(0,0,0,0)" stroke-width="1"/>
        <path id="Path_6462" data-name="Path 6462" d="M555.625,181.462a1.452,1.452,0,0,1,.3-.584l-.34.818v-.039A1.4,1.4,0,0,0,555.625,181.462Z" transform="translate(-555.586 -42.568)" fill="#c13a3a" stroke="rgba(0,0,0,0)" stroke-width="1"/>
        <path id="Path_6463" data-name="Path 6463" d="M611.195,211.061c-1.159,1.86-2.736,3.573-4.859,3.972a5.113,5.113,0,0,1-4.059-1.392c-4.274-.127-8.129-2.688-11.079-5.784s-5.229-6.757-8.033-9.979c-6.912-7.954-16.619-12.831-26.062-17.514a19.471,19.471,0,0,1,4.08-9.746,10.937,10.937,0,0,1,4.216-.34,5.609,5.609,0,0,1,2.2.467,6.27,6.27,0,0,1,1.85,1.626q3.242,3.71,6.475,7.419a104.244,104.244,0,0,0,11.6,11.946,34.177,34.177,0,0,0,7.613,4.917c2.473,1.109,5.112,1.811,7.643,2.794a16.016,16.016,0,0,1,6.727,4.429A7.887,7.887,0,0,1,611.195,211.061Z" transform="translate(-555.274 -44.761)" fill="#24273a" stroke="rgba(0,0,0,0)" stroke-width="1"/>
        <path id="Path_6464" data-name="Path 6464" d="M574.117,178.806c.182-1.181,1.337-1.9,2.279-2.636a22.359,22.359,0,0,0,4.171-4.745" transform="translate(-551.77 -44.514)" fill="rgba(0,0,0,0)" stroke="#24273a" stroke-width="0.807"/>
        <path id="Path_6465" data-name="Path 6465" d="M578.081,181.221a27.3,27.3,0,0,1,5.13-6.36c.163-.15.333-.415.166-.562" transform="translate(-550.954 -43.922)" fill="rgba(0,0,0,0)" stroke="#24273a" stroke-width="0.807"/>
        <path id="Path_6466" data-name="Path 6466" d="M589.831,191.415a33.919,33.919,0,0,0,3.293-4.88,12.621,12.621,0,0,1,3.943-4.306" transform="translate(-548.534 -42.29)" fill="rgba(0,0,0,0)" stroke="#24273a" stroke-width="0.807"/>
        <path id="Path_6467" data-name="Path 6467" d="M592.23,192.414q2.735-3.746,5.471-7.491" transform="translate(-548.04 -41.735)" fill="rgba(0,0,0,0)" stroke="#24273a" stroke-width="0.807"/>
      </g>
    </g>
    <path id="Path_6468" data-name="Path 6468" d="M634.971,83.671a39.333,39.333,0,0,0,14.057,5.306c3.747.637,7.625.738,11.192,2.05,5.334,1.963,9.415,6.483,12.028,11.53s3.935,10.646,5.229,16.181c1.5,6.4,2.951,13.29.464,19.372-2.743,6.71-9.82,11.11-11.853,18.07" transform="translate(18.32 6.238)" fill="rgba(0,0,0,0)" stroke="#d3d3d3" stroke-width="0.355" style="mix-blend-mode: color-burn;isolation: isolate"/>
    <path id="Path_6469" data-name="Path 6469" d="M702.789,138.184a155.373,155.373,0,0,0,14.275,24.4c6.021,8.423,13.192,17.03,13.634,27.374a2.329,2.329,0,0,1-.335,1.582,2.285,2.285,0,0,1-1.3.657c-3.917.953-8.015.6-12.044.76s-8.292.967-11.227,3.731" transform="translate(32.285 17.464)" fill="rgba(0,0,0,0)" stroke="#d3d3d3" stroke-width="0.355" style="mix-blend-mode: color-burn;isolation: isolate"/>
    <path id="Path_6470" data-name="Path 6470" d="M693.535,212.7l28.642-4.132a136.54,136.54,0,0,0,17.415-3.289c11.53-3.233,22.753-9.568,34.655-8.245" transform="translate(30.38 29.546)" fill="rgba(0,0,0,0)" stroke="#d3d3d3" stroke-width="0.355" style="mix-blend-mode: color-burn;isolation: isolate"/>
    <path id="Path_6471" data-name="Path 6471" d="M691.13,211.331a208.953,208.953,0,0,0-1.124,29.481,21.759,21.759,0,0,0,1.359,8.107c1.109,2.524,3.374,4.72,6.12,4.971" transform="translate(29.63 32.526)" fill="rgba(0,0,0,0)" stroke="#d3d3d3" stroke-width="0.355" style="mix-blend-mode: color-burn;isolation: isolate"/>
    <path id="Path_6472" data-name="Path 6472" d="M659.831,136.129a224.568,224.568,0,0,1-5.858,55.694,12.915,12.915,0,0,1-2.144,5.306c-1.448,1.793-3.708,2.7-5.9,3.419a70.233,70.233,0,0,1-21.286,3.523c-6.42.06-13.586-.527-18.472,3.639" transform="translate(12.39 17.04)" fill="rgba(0,0,0,0)" stroke="#d3d3d3" stroke-width="0.355" style="mix-blend-mode: color-burn;isolation: isolate"/>
    <path id="Path_6473" data-name="Path 6473" d="M615.566,128.7a26.144,26.144,0,0,0,28.073,2.147" transform="translate(14.324 15.51)" fill="rgba(0,0,0,0)" stroke="#d3d3d3" stroke-width="0.355" style="mix-blend-mode: color-burn;isolation: isolate"/>
    <path id="Path_6474" data-name="Path 6474" d="M652.177,209.258a189.8,189.8,0,0,1,4.49,43.164" transform="translate(21.863 32.099)" fill="rgba(0,0,0,0)" stroke="#d3d3d3" stroke-width="0.355" style="mix-blend-mode: color-burn;isolation: isolate"/>
    <path id="Path_6475" data-name="Path 6475" d="M608.082,210.286q.362,19.136,2.179,38.208" transform="translate(12.783 32.311)" fill="rgba(0,0,0,0)" stroke="#d3d3d3" stroke-width="0.355" style="mix-blend-mode: color-burn;isolation: isolate"/>
    <path id="Path_6476" data-name="Path 6476" d="M574.946,165.8a236.593,236.593,0,0,0,33.229,20.485" transform="translate(5.96 23.151)" fill="rgba(0,0,0,0)" stroke="#d3d3d3" stroke-width="0.355" style="mix-blend-mode: color-burn;isolation: isolate"/>
    <path id="Path_6477" data-name="Path 6477" d="M609.788,102.763c4.054,3.831,10.156,4.9,15.646,3.91s10.484-3.775,15.143-6.842" transform="translate(13.134 9.566)" fill="rgba(0,0,0,0)" stroke="#d3d3d3" stroke-width="0.355" style="mix-blend-mode: color-burn;isolation: isolate"/>
    <path id="Path_6478" data-name="Path 6478" d="M653.811,123.327q1.758,6.5,3.518,13" transform="translate(22.2 14.404)" fill="rgba(0,0,0,0)" stroke="#d3d3d3" stroke-width="0.355" style="mix-blend-mode: color-burn;isolation: isolate"/>
    <path id="Path_6479" data-name="Path 6479" d="M698.36,134.138a169.006,169.006,0,0,0,14.6,50.5" transform="translate(31.373 16.63)" fill="rgba(0,0,0,0)" stroke="#d3d3d3" stroke-width="0.355" style="mix-blend-mode: color-burn;isolation: isolate"/>
    <path id="Path_6480" data-name="Path 6480" d="M697,116.73A48.322,48.322,0,0,0,686.5,153.7" transform="translate(28.841 13.046)" fill="rgba(0,0,0,0)" stroke="#d3d3d3" stroke-width="0.355" style="mix-blend-mode: color-burn;isolation: isolate"/>
  </g>
</svg>
