<svg xmlns="http://www.w3.org/2000/svg" width="264" height="68.604" viewBox="0 0 264 68.604">
  <g id="Group_303" data-name="Group 303" transform="translate(-20.862 -10.66)">
    <g id="Group_300" data-name="Group 300" transform="translate(20.862 10.66)">
      <path id="Path_6570" data-name="Path 6570" d="M98.488,60.844l-9.98-27.681a1.4,1.4,0,0,1,.842-1.793,1.417,1.417,0,0,1,.476-.083h5.339a1.4,1.4,0,0,1,1.321.942l8.147,23.43a1.4,1.4,0,0,1-1.321,1.86h0A1.4,1.4,0,0,1,102,55.642l8.5-23.432a1.4,1.4,0,0,1,1.316-.923h5.507a1.4,1.4,0,0,1,1.319.936l8.249,23.43a1.4,1.4,0,0,1-.854,1.785,1.384,1.384,0,0,1-.465.08h0a1.4,1.4,0,0,1-1.4-1.4,1.374,1.374,0,0,1,.082-.473l8.4-23.432a1.4,1.4,0,0,1,1.318-.929h4.836a1.4,1.4,0,0,1,1.316,1.877L130.092,60.845a1.4,1.4,0,0,1-1.316.923h-6.59a1.4,1.4,0,0,1-1.318-.925L113.1,39.277h2.608l-8.046,21.58a1.4,1.4,0,0,1-1.313.911H99.806A1.4,1.4,0,0,1,98.488,60.844Z" transform="translate(-16.377 -9.291)" fill="#18353e"/>
      <path id="Path_6571" data-name="Path 6571" d="M143.745,27.919a5.6,5.6,0,0,1-3.966-1.417,4.8,4.8,0,0,1,0-7.026,5.611,5.611,0,0,1,3.966-1.414,5.824,5.824,0,0,1,3.964,1.33,4.342,4.342,0,0,1,1.532,3.426,4.859,4.859,0,0,1-1.5,3.657A5.526,5.526,0,0,1,143.745,27.919Zm-4.42,30.309V36.585a4.42,4.42,0,0,1,4.419-4.42h0a4.419,4.419,0,0,1,4.418,4.42V58.227a4.419,4.419,0,0,1-4.418,4.42h0a4.42,4.42,0,0,1-4.42-4.419Z" transform="translate(-13.07 -10.169)" fill="#18353e"/>
      <path id="Path_6574" data-name="Path 6574" d="M175.57,72.905a13.306,13.306,0,0,1-3.71-.515,9.045,9.045,0,0,1-1.443-.543,1.828,1.828,0,0,1-.89-2.412h0a1.767,1.767,0,0,1,2.307-.914,8.263,8.263,0,0,0,3.5.7,4.968,4.968,0,0,0,3.892-1.509,6.48,6.48,0,0,0,1.358-4.468V31.014a1.8,1.8,0,0,1,1.8-1.805h.676a1.8,1.8,0,0,1,1.8,1.8h0V63.247a10.061,10.061,0,0,1-2.383,7.032Q180.094,72.907,175.57,72.905Zm7.183-50.7a3.041,3.041,0,0,1-2.234-.9,2.963,2.963,0,0,1-.9-2.173,2.862,2.862,0,0,1,.9-2.141,3.09,3.09,0,0,1,2.234-.877,3.155,3.155,0,0,1,2.233.845,2.768,2.768,0,0,1,.906,2.114,3.086,3.086,0,0,1-.877,2.233A3.011,3.011,0,0,1,182.753,22.207Z" transform="translate(-11.005 -10.299)" fill="#eb6300"/>
      <path id="Path_6575" data-name="Path 6575" d="M201.854,56.847a14.953,14.953,0,0,1-7.549-1.909,14,14,0,0,1-5.283-5.255,14.993,14.993,0,0,1-1.937-7.661,14.979,14.979,0,0,1,1.937-7.688,13.955,13.955,0,0,1,5.254-5.2,15.1,15.1,0,0,1,7.578-1.88,15.375,15.375,0,0,1,7.661,1.88,13.69,13.69,0,0,1,5.253,5.2,15.141,15.141,0,0,1,1.909,7.688,15.171,15.171,0,0,1-1.909,7.661,13.756,13.756,0,0,1-5.282,5.255A15.212,15.212,0,0,1,201.854,56.847Zm0-3.484a10.921,10.921,0,0,0,5.586-1.413,10.112,10.112,0,0,0,3.844-3.98,12.2,12.2,0,0,0,1.411-5.948,12.117,12.117,0,0,0-1.411-5.972,10.163,10.163,0,0,0-3.844-3.956,11.556,11.556,0,0,0-11.063,0,10.37,10.37,0,0,0-3.871,3.956,11.932,11.932,0,0,0-1.437,5.972,11.994,11.994,0,0,0,1.438,5.948,10.323,10.323,0,0,0,3.871,3.98A10.713,10.713,0,0,0,201.854,53.363Z" transform="translate(-9.828 -9.559)" fill="#eb6300"/>
      <path id="Path_6576" data-name="Path 6576" d="M217.389,55.42V18.14a1.88,1.88,0,0,1,1.881-1.88h.166a1.88,1.88,0,0,1,1.88,1.88V36.748c0,.058,0,.117-.009.175l-.53,5.624a1.782,1.782,0,0,0,0,.3l.373,5.65c0,.043,0,.082,0,.125v6.8a1.88,1.88,0,0,1-1.88,1.88h0A1.881,1.881,0,0,1,217.389,55.42Zm14.99,2.157a13.556,13.556,0,0,1-6.86-1.741,12.4,12.4,0,0,1-4.81-5.061,16.82,16.82,0,0,1-1.77-8.021,16.6,16.6,0,0,1,1.8-8.048,12.428,12.428,0,0,1,4.84-5,13.6,13.6,0,0,1,6.8-1.716,14.9,14.9,0,0,1,7.44,1.852,13.426,13.426,0,0,1,5.171,5.172,15.441,15.441,0,0,1,1.879,7.743,15.482,15.482,0,0,1-1.879,7.716,13.548,13.548,0,0,1-5.171,5.227,14.733,14.733,0,0,1-7.439,1.88Zm-.277-3.484a10.8,10.8,0,0,0,5.53-1.413A10.3,10.3,0,0,0,241.5,48.7a11.99,11.99,0,0,0,1.439-5.948A11.925,11.925,0,0,0,241.5,36.78a10.37,10.37,0,0,0-3.871-3.956,10.86,10.86,0,0,0-5.531-1.41,10.983,10.983,0,0,0-5.559,1.41,10.125,10.125,0,0,0-3.871,3.956,12.143,12.143,0,0,0-1.411,5.972,12.169,12.169,0,0,0,1.411,5.948,10.061,10.061,0,0,0,3.871,3.98,10.964,10.964,0,0,0,5.559,1.413Z" transform="translate(-7.817 -10.289)" fill="#eb6300"/>
      <path id="Path_6577" data-name="Path 6577" d="M257.875,56.847a22.244,22.244,0,0,1-6.8-1.024,17.363,17.363,0,0,1-3.643-1.587,1.758,1.758,0,0,1-.591-2.382l.054-.1a1.746,1.746,0,0,1,2.378-.661,19.577,19.577,0,0,0,3.074,1.351,17.39,17.39,0,0,0,5.808.969q4.146,0,5.973-1.3a4.043,4.043,0,0,0,1.823-3.456,3.2,3.2,0,0,0-1.023-2.517,6.724,6.724,0,0,0-2.682-1.383,32.826,32.826,0,0,0-3.707-.8q-2.044-.331-4.064-.775a14.865,14.865,0,0,1-3.678-1.3,7.183,7.183,0,0,1-2.683-2.351,6.9,6.9,0,0,1-1.023-3.982,7.208,7.208,0,0,1,1.327-4.258,8.77,8.77,0,0,1,3.9-2.96,16.234,16.234,0,0,1,6.278-1.078,21.958,21.958,0,0,1,5.641.746,18.5,18.5,0,0,1,3.021,1.064,1.763,1.763,0,0,1,.782,2.447h0a1.755,1.755,0,0,1-2.356.718,13.091,13.091,0,0,0-2.664-1.023,17.4,17.4,0,0,0-4.424-.579q-3.927,0-5.78,1.354a4.118,4.118,0,0,0-1.852,3.458,3.361,3.361,0,0,0,1.023,2.6,7.054,7.054,0,0,0,2.71,1.464,27.237,27.237,0,0,0,3.7.858q2.02.331,4.038.8a18.3,18.3,0,0,1,3.707,1.271,6.822,6.822,0,0,1,2.711,2.267,6.608,6.608,0,0,1,1.022,3.845,7.05,7.05,0,0,1-1.411,4.4,9.015,9.015,0,0,1-4.092,2.877A18.241,18.241,0,0,1,257.875,56.847Z" transform="translate(-5.878 -9.559)" fill="#eb6300"/>
      <g id="Layer_4" data-name="Layer 4">
        <g id="Group_257" data-name="Group 257">
          <path id="Path_6578" data-name="Path 6578" d="M56.812,10.7a34.283,34.283,0,0,1,31.71,42c-1.033,4.46-6.4,6.137-10.09,3.432l-.073-.051a25.675,25.675,0,0,0,2.5-12.543,25.77,25.77,0,1,0-7.5,19.595,11.717,11.717,0,0,1,6.2,5.836A34.273,34.273,0,1,1,56.812,10.7Z" transform="translate(-20.862 -10.66)" fill="#20343c"/>
          <path id="Path_6579" data-name="Path 6579" d="M63.7,64.766a25.828,25.828,0,0,0,6.815-4.895,11.717,11.717,0,0,1,6.2,5.836,34.426,34.426,0,0,1-7.605,5.826A21.755,21.755,0,0,0,63.7,64.766Z" transform="translate(-18.018 -7.394)" fill="#20343c"/>
          <path id="Path_6580" data-name="Path 6580" d="M54.591,26.636a17.416,17.416,0,0,1,16.7,16.239,17.193,17.193,0,0,1-1.405,7.888q-1.048-.459-2.127-.861a7.734,7.734,0,0,1-4.984-6.756,8.994,8.994,0,0,0-.133-.983,8.732,8.732,0,1,0-12.35,9.577c2.58,1.243,5.79.8,8.552,1.187A34.316,34.316,0,0,1,87.24,78.2h-3.1a9.476,9.476,0,0,1-8.047-4.7A25.771,25.771,0,0,0,57.873,61.394c-2.8-.413-5.547-.126-8.312-.874a17.246,17.246,0,0,1,5.03-33.883Z" transform="translate(-19.802 -9.6)" fill="#eb6300"/>
        </g>
      </g>
      <g id="Group_299" data-name="Group 299" transform="translate(138.927 21.996)">
        <path id="Path_6615" data-name="Path 6615" d="M167.321,61.914a17.277,17.277,0,0,1-8.37-1.989,14.671,14.671,0,0,1-5.738-5.459,15.094,15.094,0,0,1-2.072-7.894,15.057,15.057,0,0,1,2.072-7.922,14.542,14.542,0,0,1,5.738-5.4,17.471,17.471,0,0,1,8.37-1.961,16.22,16.22,0,0,1,7.7,1.764,11.821,11.821,0,0,1,2.83,2.074,3.06,3.06,0,0,1-.653,4.791l-.223.13a3.13,3.13,0,0,1-3.754-.528,7.794,7.794,0,0,0-1.784-1.288,8.891,8.891,0,0,0-4.172-1.008,9.615,9.615,0,0,0-4.647,1.12,8.057,8.057,0,0,0-3.247,3.219,10.1,10.1,0,0,0-1.175,5.011,10.1,10.1,0,0,0,1.175,5.011,8.044,8.044,0,0,0,3.247,3.219,9.6,9.6,0,0,0,4.647,1.121,8.891,8.891,0,0,0,4.172-1.008,7.794,7.794,0,0,0,1.784-1.288,3.131,3.131,0,0,1,3.754-.528l.206.119a3.058,3.058,0,0,1,.653,4.79,12.4,12.4,0,0,1-2.813,2.085A15.812,15.812,0,0,1,167.321,61.914Z" transform="translate(-151.141 -31.287)" fill="#18353e"/>
      </g>
    </g>
    <g id="Group_301" data-name="Group 301" transform="translate(203.845 64.034)">
      <path id="Path_6616" data-name="Path 6616" d="M192.455,64.613v-.655H197.2v.655Zm3.621,7.348a2.119,2.119,0,0,1-1.606-.578,2.186,2.186,0,0,1-.555-1.581V62.224h.76v7.5a1.661,1.661,0,0,0,.381,1.171,1.417,1.417,0,0,0,1.1.411,1.767,1.767,0,0,0,1.233-.441l.319.533a1.864,1.864,0,0,1-.738.425A2.917,2.917,0,0,1,196.076,71.961Z" transform="translate(-192.455 -60.612)" fill="#161615"/>
      <path id="Path_6617" data-name="Path 6617" d="M203.239,64a3.656,3.656,0,0,1,1.7.372,2.632,2.632,0,0,1,1.126,1.126,3.915,3.915,0,0,1,.4,1.864V72H205.7v-4.58a2.815,2.815,0,0,0-.677-2.039,2.51,2.51,0,0,0-1.894-.7,3.262,3.262,0,0,0-1.613.382,2.523,2.523,0,0,0-1.041,1.064,3.507,3.507,0,0,0-.358,1.643V72h-.76V60.712h.76v5.554l-.137-.244a3,3,0,0,1,1.2-1.483A3.713,3.713,0,0,1,203.239,64Z" transform="translate(-191.997 -60.712)" fill="#161615"/>
      <path id="Path_6618" data-name="Path 6618" d="M212.243,71.857a4.261,4.261,0,0,1-2.122-.516,3.759,3.759,0,0,1-1.446-1.431,4.1,4.1,0,0,1-.525-2.084,4.282,4.282,0,0,1,.495-2.092,3.661,3.661,0,0,1,1.361-1.423,3.726,3.726,0,0,1,1.948-.517,3.775,3.775,0,0,1,1.94.5,3.578,3.578,0,0,1,1.354,1.408,4.3,4.3,0,0,1,.495,2.092.653.653,0,0,1-.009.1.8.8,0,0,0-.007.115h-7.014v-.594h6.6l-.306.29a3.3,3.3,0,0,0-.387-1.667,3.033,3.033,0,0,0-1.088-1.157,3.2,3.2,0,0,0-3.158,0,2.947,2.947,0,0,0-1.088,1.157,3.492,3.492,0,0,0-.4,1.681v.138a3.4,3.4,0,0,0,.433,1.726,3.062,3.062,0,0,0,1.194,1.172,3.537,3.537,0,0,0,1.735.419,3.687,3.687,0,0,0,1.423-.274,2.79,2.79,0,0,0,1.119-.837l.441.5a3.253,3.253,0,0,1-1.3.966A4.35,4.35,0,0,1,212.243,71.857Z" transform="translate(-191.413 -60.507)" fill="#161615"/>
      <path id="Path_6619" data-name="Path 6619" d="M221.148,74.748V63.854h.729v2.6l-.122,1.384.152,1.384v5.523Zm3.986-2.891a3.714,3.714,0,0,1-1.894-.486,3.5,3.5,0,0,1-1.339-1.392,4.934,4.934,0,0,1,0-4.307,3.509,3.509,0,0,1,1.339-1.392,3.724,3.724,0,0,1,1.894-.486,4,4,0,0,1,2.017.509,3.69,3.69,0,0,1,1.4,1.423,4.581,4.581,0,0,1,0,4.2,3.683,3.683,0,0,1-1.4,1.423A4,4,0,0,1,225.134,71.857Zm-.046-.684a3.242,3.242,0,0,0,1.643-.419,2.993,2.993,0,0,0,1.148-1.178,3.879,3.879,0,0,0,0-3.507,3,3,0,0,0-1.148-1.172,3.243,3.243,0,0,0-1.643-.419,3.2,3.2,0,0,0-1.636.419,3.023,3.023,0,0,0-1.141,1.172,3.888,3.888,0,0,0,0,3.507,3.011,3.011,0,0,0,1.141,1.178A3.2,3.2,0,0,0,225.088,71.173Z" transform="translate(-190.55 -60.507)" fill="#161615"/>
      <path id="Path_6620" data-name="Path 6620" d="M230.779,72V60.712h.76V72Z" transform="translate(-189.911 -60.712)" fill="#161615"/>
      <path id="Path_6621" data-name="Path 6621" d="M237.734,71.853a3.9,3.9,0,0,1-1.765-.372,2.6,2.6,0,0,1-1.15-1.126,3.912,3.912,0,0,1-.4-1.864V63.85h.761v4.58a2.8,2.8,0,0,0,.685,2.039,2.578,2.578,0,0,0,1.932.7,3.038,3.038,0,0,0,1.553-.381,2.534,2.534,0,0,0,1-1.073,3.578,3.578,0,0,0,.35-1.636V63.85h.761v7.943h-.73V69.586l.107.259a2.974,2.974,0,0,1-1.165,1.468A3.424,3.424,0,0,1,237.734,71.853Z" transform="translate(-189.67 -60.504)" fill="#161615"/>
      <path id="Path_6622" data-name="Path 6622" d="M247.191,71.507a4.085,4.085,0,0,1-2.017-.494,3.744,3.744,0,0,1-1.415-1.369,4.093,4.093,0,0,1,0-4.01,3.7,3.7,0,0,1,1.415-1.354,4.139,4.139,0,0,1,2.017-.486,4.02,4.02,0,0,1,1.94.463,3.449,3.449,0,0,1,1.361,1.324,4.468,4.468,0,0,1,0,4.116,3.477,3.477,0,0,1-1.361,1.338A3.966,3.966,0,0,1,247.191,71.507Zm.212,3.3a6.255,6.255,0,0,1-2.054-.336,4.165,4.165,0,0,1-1.582-.928l.412-.578a4.185,4.185,0,0,0,1.423.852,5.127,5.127,0,0,0,1.787.3,3.227,3.227,0,0,0,2.35-.744,3.182,3.182,0,0,0,.753-2.344V68.829l.152-1.187-.122-1.186v-2.6h.73v7.091a3.918,3.918,0,0,1-.966,2.928A3.993,3.993,0,0,1,247.4,74.81Zm-.152-3.986a3.439,3.439,0,0,0,1.689-.4,2.968,2.968,0,0,0,1.15-1.126,3.485,3.485,0,0,0,0-3.31,2.93,2.93,0,0,0-1.15-1.111,3.754,3.754,0,0,0-3.355,0,2.912,2.912,0,0,0-1.156,1.111,3.478,3.478,0,0,0,0,3.31,2.949,2.949,0,0,0,1.156,1.126A3.419,3.419,0,0,0,247.251,70.824Z" transform="translate(-189.084 -60.507)" fill="#161615"/>
      <path id="Path_6623" data-name="Path 6623" d="M253.733,71.435a.612.612,0,0,1-.449-.189.634.634,0,0,1-.191-.465.607.607,0,0,1,.191-.456.644.644,0,0,1,.9,0,.606.606,0,0,1,.19.456.633.633,0,0,1-.19.465A.612.612,0,0,1,253.733,71.435Z" transform="translate(-188.43 -60.086)" fill="#161615"/>
      <path id="Path_6624" data-name="Path 6624" d="M256.586,71.435a.614.614,0,0,1-.449-.189.633.633,0,0,1-.19-.465.606.606,0,0,1,.19-.456.644.644,0,0,1,.9,0,.607.607,0,0,1,.191.456.634.634,0,0,1-.191.465A.612.612,0,0,1,256.586,71.435Z" transform="translate(-188.241 -60.086)" fill="#161615"/>
      <path id="Path_6625" data-name="Path 6625" d="M259.44,71.435a.612.612,0,0,1-.449-.189.634.634,0,0,1-.191-.465.607.607,0,0,1,.191-.456.644.644,0,0,1,.9,0,.606.606,0,0,1,.19.456.633.633,0,0,1-.19.465A.612.612,0,0,1,259.44,71.435Z" transform="translate(-188.051 -60.086)" fill="#161615"/>
    </g>
  </g>
</svg>
