<svg xmlns="http://www.w3.org/2000/svg" width="234.739" height="61" viewBox="0 0 234.739 61">
  <g id="Group_304" data-name="Group 304" transform="translate(-20.862 -10.66)">
    <g id="Group_300" data-name="Group 300" transform="translate(20.862 10.66)">
      <path id="Path_6570" data-name="Path 6570" d="M97.373,57.568,88.5,32.955a1.245,1.245,0,0,1,.749-1.594,1.26,1.26,0,0,1,.423-.074h4.748a1.245,1.245,0,0,1,1.175.837l7.244,20.833a1.244,1.244,0,0,1-1.175,1.654h0a1.244,1.244,0,0,1-1.17-1.669l7.559-20.834a1.248,1.248,0,0,1,1.17-.821h4.9a1.242,1.242,0,0,1,1.173.832l7.335,20.833a1.244,1.244,0,0,1-.759,1.587,1.231,1.231,0,0,1-.413.071h0a1.244,1.244,0,0,1-1.245-1.243,1.222,1.222,0,0,1,.073-.421l7.47-20.834a1.245,1.245,0,0,1,1.172-.826h4.3a1.246,1.246,0,0,1,1.17,1.669l-8.92,24.613a1.245,1.245,0,0,1-1.17.821h-5.86a1.244,1.244,0,0,1-1.172-.822l-6.908-19.176h2.319L105.529,57.58a1.244,1.244,0,0,1-1.167.81H98.545A1.246,1.246,0,0,1,97.373,57.568Z" transform="translate(-24.363 -11.729)" fill="#fefefe"/>
      <path id="Path_6571" data-name="Path 6571" d="M143.136,26.826a4.982,4.982,0,0,1-3.526-1.26,4.266,4.266,0,0,1,0-6.248,4.989,4.989,0,0,1,3.526-1.257,5.179,5.179,0,0,1,3.524,1.182,3.86,3.86,0,0,1,1.363,3.047,4.32,4.32,0,0,1-1.336,3.251A4.914,4.914,0,0,1,143.136,26.826Zm-3.93,26.949V34.532a3.93,3.93,0,0,1,3.929-3.93h0a3.929,3.929,0,0,1,3.928,3.93V53.775a3.929,3.929,0,0,1-3.928,3.93h0a3.93,3.93,0,0,1-3.93-3.929Z" transform="translate(-26.945 -11.044)" fill="#fefefe"/>
      <path id="Path_6574" data-name="Path 6574" d="M174.881,66.61a11.832,11.832,0,0,1-3.3-.458,8.042,8.042,0,0,1-1.283-.483,1.625,1.625,0,0,1-.792-2.145h0a1.571,1.571,0,0,1,2.051-.813,7.347,7.347,0,0,0,3.109.625A4.417,4.417,0,0,0,178.129,62a5.762,5.762,0,0,0,1.207-3.973V29.362a1.6,1.6,0,0,1,1.6-1.605h.6a1.6,1.6,0,0,1,1.6,1.6h0V58.023a8.946,8.946,0,0,1-2.119,6.252A7.874,7.874,0,0,1,174.881,66.61Zm6.387-45.078a2.7,2.7,0,0,1-1.986-.8,2.634,2.634,0,0,1-.8-1.932,2.545,2.545,0,0,1,.8-1.9,2.748,2.748,0,0,1,1.986-.779,2.805,2.805,0,0,1,1.986.751,2.461,2.461,0,0,1,.806,1.879,2.744,2.744,0,0,1-.779,1.985A2.678,2.678,0,0,1,181.268,21.532Z" transform="translate(-28.557 -10.943)" fill="#fefefe"/>
      <path id="Path_6575" data-name="Path 6575" d="M200.217,53.567a13.3,13.3,0,0,1-6.712-1.7,12.451,12.451,0,0,1-4.7-4.673,13.331,13.331,0,0,1-1.722-6.812,13.319,13.319,0,0,1,1.722-6.835,12.409,12.409,0,0,1,4.672-4.622,13.429,13.429,0,0,1,6.738-1.672,13.671,13.671,0,0,1,6.812,1.672A12.172,12.172,0,0,1,211.7,33.55a13.463,13.463,0,0,1,1.7,6.835,13.49,13.49,0,0,1-1.7,6.812A12.231,12.231,0,0,1,207,51.87,13.526,13.526,0,0,1,200.217,53.567Zm0-3.1a9.711,9.711,0,0,0,4.967-1.256,8.991,8.991,0,0,0,3.418-3.539,10.845,10.845,0,0,0,1.254-5.289,10.774,10.774,0,0,0-1.254-5.31,9.036,9.036,0,0,0-3.418-3.518,10.275,10.275,0,0,0-9.836,0,9.221,9.221,0,0,0-3.442,3.518,10.61,10.61,0,0,0-1.278,5.31,10.665,10.665,0,0,0,1.278,5.289,9.179,9.179,0,0,0,3.442,3.539A9.526,9.526,0,0,0,200.217,50.469Z" transform="translate(-29.475 -11.52)" fill="#fefefe"/>
      <path id="Path_6576" data-name="Path 6576" d="M217.389,51.079V17.932a1.672,1.672,0,0,1,1.673-1.672h.148a1.671,1.671,0,0,1,1.672,1.672V34.477c0,.051,0,.1-.008.156l-.471,5a1.586,1.586,0,0,0,0,.268l.332,5.023c0,.038,0,.073,0,.111v6.043a1.672,1.672,0,0,1-1.672,1.672h0A1.673,1.673,0,0,1,217.389,51.079ZM230.718,53a12.053,12.053,0,0,1-6.1-1.548,11.024,11.024,0,0,1-4.277-4.5,14.955,14.955,0,0,1-1.574-7.132,14.764,14.764,0,0,1,1.6-7.156,11.051,11.051,0,0,1,4.3-4.449,12.1,12.1,0,0,1,6.049-1.526,13.253,13.253,0,0,1,6.615,1.647,11.938,11.938,0,0,1,4.6,4.6,13.729,13.729,0,0,1,1.671,6.885,13.766,13.766,0,0,1-1.671,6.861,12.046,12.046,0,0,1-4.6,4.648A13.1,13.1,0,0,1,230.718,53Zm-.247-3.1a9.6,9.6,0,0,0,4.917-1.256,9.155,9.155,0,0,0,3.443-3.539,10.661,10.661,0,0,0,1.279-5.289,10.6,10.6,0,0,0-1.279-5.31,9.221,9.221,0,0,0-3.442-3.518,9.656,9.656,0,0,0-4.918-1.253,9.766,9.766,0,0,0-4.943,1.253,9,9,0,0,0-3.442,3.518,10.8,10.8,0,0,0-1.254,5.31,10.82,10.82,0,0,0,1.254,5.289,8.946,8.946,0,0,0,3.442,3.539,9.749,9.749,0,0,0,4.943,1.256Z" transform="translate(-31.045 -10.951)" fill="#fefefe"/>
      <path id="Path_6577" data-name="Path 6577" d="M256.625,53.567a19.779,19.779,0,0,1-6.047-.91,15.438,15.438,0,0,1-3.239-1.411,1.563,1.563,0,0,1-.525-2.118l.048-.085a1.552,1.552,0,0,1,2.114-.588,17.4,17.4,0,0,0,2.734,1.2,15.462,15.462,0,0,0,5.164.862q3.687,0,5.311-1.156a3.6,3.6,0,0,0,1.621-3.073,2.843,2.843,0,0,0-.909-2.238,5.978,5.978,0,0,0-2.385-1.23,29.185,29.185,0,0,0-3.3-.713q-1.818-.294-3.613-.689a13.217,13.217,0,0,1-3.27-1.155,6.387,6.387,0,0,1-2.386-2.091,6.135,6.135,0,0,1-.909-3.541,6.409,6.409,0,0,1,1.18-3.786,7.8,7.8,0,0,1,3.468-2.632,14.435,14.435,0,0,1,5.582-.959,19.524,19.524,0,0,1,5.016.664,16.452,16.452,0,0,1,2.686.946,1.568,1.568,0,0,1,.7,2.176h0a1.561,1.561,0,0,1-2.095.638,11.64,11.64,0,0,0-2.369-.909,15.475,15.475,0,0,0-3.934-.515,8.767,8.767,0,0,0-5.139,1.2,3.661,3.661,0,0,0-1.647,3.075,2.989,2.989,0,0,0,.909,2.312,6.273,6.273,0,0,0,2.409,1.3,24.216,24.216,0,0,0,3.294.763q1.8.294,3.591.713a16.267,16.267,0,0,1,3.3,1.13,6.065,6.065,0,0,1,2.41,2.016,5.876,5.876,0,0,1,.908,3.419,6.268,6.268,0,0,1-1.254,3.908,8.015,8.015,0,0,1-3.638,2.558A16.219,16.219,0,0,1,256.625,53.567Z" transform="translate(-32.559 -11.52)" fill="#fefefe"/>
      <g id="Layer_4" data-name="Layer 4">
        <g id="Group_257" data-name="Group 257">
          <path id="Path_6578" data-name="Path 6578" d="M52.827,10.7a30.483,30.483,0,0,1,28.2,37.349A5.68,5.68,0,0,1,72.051,51.1l-.064-.046A22.829,22.829,0,0,0,74.207,39.9a22.913,22.913,0,1,0-6.668,17.423,10.419,10.419,0,0,1,5.513,5.189A30.475,30.475,0,1,1,52.827,10.7Z" transform="translate(-20.862 -10.66)" fill="#fefefe"/>
          <path id="Path_6579" data-name="Path 6579" d="M63.7,64.223a22.965,22.965,0,0,0,6.06-4.352,10.419,10.419,0,0,1,5.513,5.189,30.61,30.61,0,0,1-6.762,5.18A19.343,19.343,0,0,0,63.7,64.223Z" transform="translate(-23.082 -13.21)" fill="#fefefe"/>
          <path id="Path_6580" data-name="Path 6580" d="M52.622,26.636A15.485,15.485,0,0,1,67.471,41.075a15.288,15.288,0,0,1-1.25,7.014q-.932-.408-1.892-.765A6.877,6.877,0,0,1,59.9,41.316a8,8,0,0,0-.119-.874A7.764,7.764,0,1,0,48.8,48.958c2.294,1.106,5.149.714,7.6,1.055A30.512,30.512,0,0,1,81.652,72.488H78.9a8.426,8.426,0,0,1-7.155-4.182,22.915,22.915,0,0,0-16.2-10.765c-2.489-.367-4.932-.112-7.391-.778a15.335,15.335,0,0,1,4.473-30.128Z" transform="translate(-21.689 -11.488)" fill="#fefefe"/>
        </g>
      </g>
      <g id="Group_299" data-name="Group 299" transform="translate(123.528 19.558)">
        <path id="Path_6615" data-name="Path 6615" d="M165.528,58.52a15.362,15.362,0,0,1-7.442-1.768,13.045,13.045,0,0,1-5.1-4.854,13.421,13.421,0,0,1-1.842-7.019,13.388,13.388,0,0,1,1.842-7.044,12.93,12.93,0,0,1,5.1-4.8,15.534,15.534,0,0,1,7.442-1.744,14.422,14.422,0,0,1,6.846,1.568A10.511,10.511,0,0,1,174.89,34.7a2.721,2.721,0,0,1-.58,4.26l-.2.116a2.783,2.783,0,0,1-3.338-.469,6.931,6.931,0,0,0-1.586-1.145,7.905,7.905,0,0,0-3.709-.9,8.549,8.549,0,0,0-4.132,1,7.164,7.164,0,0,0-2.887,2.863,8.984,8.984,0,0,0-1.045,4.456,8.977,8.977,0,0,0,1.045,4.456,7.152,7.152,0,0,0,2.887,2.863,8.539,8.539,0,0,0,4.132,1,7.905,7.905,0,0,0,3.709-.9,6.931,6.931,0,0,0,1.586-1.145,2.784,2.784,0,0,1,3.338-.469l.183.106a2.719,2.719,0,0,1,.58,4.259,11.027,11.027,0,0,1-2.5,1.854A14.06,14.06,0,0,1,165.528,58.52Z" transform="translate(-151.141 -31.287)" fill="#fefefe"/>
      </g>
    </g>
    <g id="Group_301" data-name="Group 301" transform="translate(183.563 58.118)">
      <path id="Path_6616" data-name="Path 6616" d="M192.455,64.348v-.582h4.221v.582Zm3.22,6.534a1.884,1.884,0,0,1-1.428-.514,1.944,1.944,0,0,1-.493-1.406V62.224h.676v6.67a1.476,1.476,0,0,0,.339,1.041,1.259,1.259,0,0,0,.974.365,1.571,1.571,0,0,0,1.1-.393l.284.474a1.657,1.657,0,0,1-.656.378A2.594,2.594,0,0,1,195.675,70.882Z" transform="translate(-192.455 -60.79)" fill="#fefefe"/>
      <path id="Path_6617" data-name="Path 6617" d="M202.81,63.634a3.25,3.25,0,0,1,1.509.331,2.341,2.341,0,0,1,1,1,3.481,3.481,0,0,1,.358,1.657V70.75H205V66.678a2.5,2.5,0,0,0-.6-1.813,2.232,2.232,0,0,0-1.684-.623,2.9,2.9,0,0,0-1.435.339,2.243,2.243,0,0,0-.925.946,3.118,3.118,0,0,0-.319,1.461V70.75h-.676V60.712h.676V65.65l-.121-.217a2.672,2.672,0,0,1,1.069-1.319A3.3,3.3,0,0,1,202.81,63.634Z" transform="translate(-192.813 -60.712)" fill="#fefefe"/>
      <path id="Path_6618" data-name="Path 6618" d="M211.789,70.963A3.788,3.788,0,0,1,209.9,70.5a3.343,3.343,0,0,1-1.286-1.272,3.649,3.649,0,0,1-.467-1.853,3.808,3.808,0,0,1,.44-1.86,3.255,3.255,0,0,1,1.21-1.265,3.313,3.313,0,0,1,1.732-.46,3.356,3.356,0,0,1,1.725.446,3.182,3.182,0,0,1,1.2,1.252,3.821,3.821,0,0,1,.44,1.86.583.583,0,0,1-.008.087.714.714,0,0,0-.007.1h-6.236v-.528h5.872l-.272.258a2.932,2.932,0,0,0-.344-1.482,2.7,2.7,0,0,0-.967-1.029,2.843,2.843,0,0,0-2.808,0,2.62,2.62,0,0,0-.967,1.029,3.105,3.105,0,0,0-.352,1.494v.122a3.028,3.028,0,0,0,.385,1.535,2.723,2.723,0,0,0,1.062,1.042,3.145,3.145,0,0,0,1.543.373,3.278,3.278,0,0,0,1.265-.244,2.481,2.481,0,0,0,.995-.744l.393.447a2.893,2.893,0,0,1-1.157.859A3.867,3.867,0,0,1,211.789,70.963Z" transform="translate(-193.268 -60.872)" fill="#fefefe"/>
      <path id="Path_6619" data-name="Path 6619" d="M221.148,73.534V63.847h.649v2.315l-.108,1.231.136,1.231v4.911Zm3.544-2.571a3.3,3.3,0,0,1-1.684-.432,3.114,3.114,0,0,1-1.191-1.237,4.387,4.387,0,0,1,0-3.83,3.12,3.12,0,0,1,1.191-1.237,3.311,3.311,0,0,1,1.684-.432,3.553,3.553,0,0,1,1.793.452,3.281,3.281,0,0,1,1.244,1.265,4.074,4.074,0,0,1,0,3.735,3.275,3.275,0,0,1-1.244,1.265A3.553,3.553,0,0,1,224.692,70.963Zm-.041-.608a2.883,2.883,0,0,0,1.461-.373,2.661,2.661,0,0,0,1.021-1.048,3.449,3.449,0,0,0,0-3.119,2.671,2.671,0,0,0-1.021-1.042,2.883,2.883,0,0,0-1.461-.373,2.846,2.846,0,0,0-1.454.373,2.687,2.687,0,0,0-1.015,1.042,3.457,3.457,0,0,0,0,3.119,2.677,2.677,0,0,0,1.015,1.048A2.846,2.846,0,0,0,224.652,70.355Z" transform="translate(-193.942 -60.872)" fill="#fefefe"/>
      <path id="Path_6620" data-name="Path 6620" d="M230.779,70.75V60.712h.676V70.75Z" transform="translate(-194.441 -60.712)" fill="#fefefe"/>
      <path id="Path_6621" data-name="Path 6621" d="M237.366,70.966a3.472,3.472,0,0,1-1.569-.331,2.308,2.308,0,0,1-1.022-1,3.478,3.478,0,0,1-.358-1.657V63.85h.677v4.072a2.488,2.488,0,0,0,.609,1.813,2.292,2.292,0,0,0,1.718.623,2.7,2.7,0,0,0,1.381-.338,2.254,2.254,0,0,0,.892-.954A3.182,3.182,0,0,0,240,67.611V63.85h.677v7.063h-.65V68.95l.095.23a2.644,2.644,0,0,1-1.035,1.306A3.044,3.044,0,0,1,237.366,70.966Z" transform="translate(-194.629 -60.875)" fill="#fefefe"/>
      <path id="Path_6622" data-name="Path 6622" d="M246.753,70.652a3.632,3.632,0,0,1-1.793-.439A3.328,3.328,0,0,1,243.7,69a3.639,3.639,0,0,1,0-3.565,3.287,3.287,0,0,1,1.258-1.2,3.68,3.68,0,0,1,1.793-.432,3.575,3.575,0,0,1,1.725.412,3.067,3.067,0,0,1,1.21,1.178,3.973,3.973,0,0,1,0,3.66,3.091,3.091,0,0,1-1.21,1.19A3.526,3.526,0,0,1,246.753,70.652Zm.189,2.937a5.562,5.562,0,0,1-1.826-.3,3.7,3.7,0,0,1-1.407-.825l.366-.514a3.721,3.721,0,0,0,1.265.758,4.559,4.559,0,0,0,1.589.27,2.87,2.87,0,0,0,2.09-.662,2.83,2.83,0,0,0,.669-2.084V68.271l.136-1.055-.108-1.054V63.847h.65v6.305a3.484,3.484,0,0,1-.859,2.6A3.55,3.55,0,0,1,246.942,73.589Zm-.136-3.544a3.057,3.057,0,0,0,1.5-.358,2.639,2.639,0,0,0,1.022-1,3.1,3.1,0,0,0,0-2.943,2.606,2.606,0,0,0-1.022-.988,3.338,3.338,0,0,0-2.983,0,2.59,2.59,0,0,0-1.028.988,3.092,3.092,0,0,0,0,2.943,2.622,2.622,0,0,0,1.028,1A3.04,3.04,0,0,0,246.806,70.044Z" transform="translate(-195.086 -60.872)" fill="#fefefe"/>
      <path id="Path_6623" data-name="Path 6623" d="M253.662,71.292a.544.544,0,0,1-.4-.168.564.564,0,0,1-.17-.413.54.54,0,0,1,.17-.406.572.572,0,0,1,.8,0,.539.539,0,0,1,.169.406.563.563,0,0,1-.169.413A.544.544,0,0,1,253.662,71.292Z" transform="translate(-195.597 -61.201)" fill="#fefefe"/>
      <path id="Path_6624" data-name="Path 6624" d="M256.515,71.292a.546.546,0,0,1-.4-.168.563.563,0,0,1-.169-.413.539.539,0,0,1,.169-.406.572.572,0,0,1,.8,0,.54.54,0,0,1,.17.406.564.564,0,0,1-.17.413A.544.544,0,0,1,256.515,71.292Z" transform="translate(-195.745 -61.201)" fill="#fefefe"/>
      <path id="Path_6625" data-name="Path 6625" d="M259.369,71.292a.544.544,0,0,1-.4-.168.564.564,0,0,1-.17-.413.539.539,0,0,1,.17-.406.572.572,0,0,1,.8,0,.539.539,0,0,1,.169.406.563.563,0,0,1-.169.413A.544.544,0,0,1,259.369,71.292Z" transform="translate(-195.893 -61.201)" fill="#fefefe"/>
    </g>
  </g>
</svg>
